ffmpeg version 3.4.6-0ubuntu0.18.04.1 Copyright (c) 2000-2019 the FFmpeg developers
  built with gcc 7 (Ubuntu 7.3.0-16ubuntu3)
  configuration: --prefix=/usr --extra-version=0ubuntu0.18.04.1 --toolchain=hardened --libdir=/usr/lib/x86_64-linux-gnu --incdir=/usr/include/x86_64-linux-gnu --enable-gpl --disable-stripping --enable-avresample --enable-avisynth --enable-gnutls --enable-ladspa --enable-libass --enable-libbluray --enable-libbs2b --enable-libcaca --enable-libcdio --enable-libflite --enable-libfontconfig --enable-libfreetype --enable-libfribidi --enable-libgme --enable-libgsm --enable-libmp3lame --enable-libmysofa --enable-libopenjpeg --enable-libopenmpt --enable-libopus --enable-libpulse --enable-librubberband --enable-librsvg --enable-libshine --enable-libsnappy --enable-libsoxr --enable-libspeex --enable-libssh --enable-libtheora --enable-libtwolame --enable-libvorbis --enable-libvpx --enable-libwavpack --enable-libwebp --enable-libx265 --enable-libxml2 --enable-libxvid --enable-libzmq --enable-libzvbi --enable-omx --enable-openal --enable-opengl --enable-sdl2 --enable-libdc1394 --enable-libdrm --enable-libiec61883 --enable-chromaprint --enable-frei0r --enable-libopencv --enable-libx264 --enable-shared
  libavutil      55. 78.100 / 55. 78.100
  libavcodec     57.107.100 / 57.107.100
  libavformat    57. 83.100 / 57. 83.100
  libavdevice    57. 10.100 / 57. 10.100
  libavfilter     6.107.100 /  6.107.100
  libavresample   3.  7.  0 /  3.  7.  0
  libswscale      4.  8.100 /  4.  8.100
  libswresample   2.  9.100 /  2.  9.100
  libpostproc    54.  7.100 / 54.  7.100
Input #0, image2pipe, from 'pipe:':
  Duration: N/A, bitrate: N/A
    Stream #0:0: Video: ppm, rgb24, 320x240, 20 fps, 20 tbr, 20 tbn, 20 tbc
Stream mapping:
  Stream #0:0 -> #0:0 (ppm (native) -> h264 (libx264))
[libx264 @ 0x563bf80ad260] using cpu capabilities: MMX2 SSE2Fast SSSE3 SSE4.2 AVX FMA3 BMI2 AVX2
[libx264 @ 0x563bf80ad260] profile High, level 1.3
[libx264 @ 0x563bf80ad260] 264 - core 152 r2854 e9a5903 - H.264/MPEG-4 AVC codec - Copyleft 2003-2017 - http://www.videolan.org/x264.html - options: cabac=1 ref=3 deblock=1:0:0 analyse=0x3:0x113 me=hex subme=7 psy=1 psy_rd=1.00:0.00 mixed_ref=1 me_range=16 chroma_me=1 trellis=1 8x8dct=1 cqm=0 deadzone=21,11 fast_pskip=1 chroma_qp_offset=-2 threads=1 lookahead_threads=1 sliced_threads=0 nr=0 decimate=1 interlaced=0 bluray_compat=0 constrained_intra=0 bframes=3 b_pyramid=2 b_adapt=1 b_bias=0 direct=1 weightb=1 open_gop=0 weightp=2 keyint=250 keyint_min=20 scenecut=40 intra_refresh=0 rc_lookahead=40 rc=abr mbtree=1 bitrate=400 ratetol=1.0 qcomp=0.60 qpmin=0 qpmax=69 qpstep=4 ip_ratio=1.40 aq=1:1.00
Output #0, mp4, to './mission_records/80595da2-aaeb-4575-a3bc-3e4cc7e6305a/video.mp4':
  Metadata:
    encoder         : Lavf57.83.100
    Stream #0:0: Video: h264 (libx264) (avc1 / 0x31637661), yuv420p, 320x240, q=-1--1, 400 kb/s, 20 fps, 10240 tbn, 20 tbc
    Metadata:
      encoder         : Lavc57.107.100 libx264
    Side data:
      cpb: bitrate max/min/avg: 0/0/400000 buffer size: 0 vbv_delay: -1
frame=   10 fps=0.0 q=23.0 Lsize=      16kB time=00:00:00.35 bitrate= 365.1kbits/s speed=2.96x    
video:15kB audio:0kB subtitle:0kB other streams:0kB global headers:0kB muxing overhead: 6.237117%
[libx264 @ 0x563bf80ad260] frame I:2     Avg QP:22.90  size:  3992
[libx264 @ 0x563bf80ad260] frame P:3     Avg QP:22.24  size:  1895
[libx264 @ 0x563bf80ad260] frame B:5     Avg QP:23.30  size:   133
[libx264 @ 0x563bf80ad260] consecutive B-frames: 30.0%  0.0% 30.0% 40.0%
[libx264 @ 0x563bf80ad260] mb I  I16..4: 23.0% 73.0%  4.0%
[libx264 @ 0x563bf80ad260] mb P  I16..4: 36.7% 12.8%  1.4%  P16..4: 24.7%  9.9%  4.6%  0.0%  0.0%    skip:10.0%
[libx264 @ 0x563bf80ad260] mb B  I16..4:  3.6%  0.3%  0.0%  B16..8: 17.9%  1.3%  0.1%  direct: 1.9%  skip:74.9%  L0:35.8% L1:61.8% BI: 2.4%
[libx264 @ 0x563bf80ad260] final ratefactor: 19.44
[libx264 @ 0x563bf80ad260] 8x8 transform intra:50.0% inter:47.5%
[libx264 @ 0x563bf80ad260] coded y,uvDC,uvAC intra: 26.6% 25.9% 3.7% inter: 10.6% 3.7% 0.0%
[libx264 @ 0x563bf80ad260] i16 v,h,dc,p: 16% 58% 14% 11%
[libx264 @ 0x563bf80ad260] i8 v,h,dc,ddl,ddr,vr,hd,vl,hu:  3% 29% 50%  2%  3%  2%  4%  2%  5%
[libx264 @ 0x563bf80ad260] i4 v,h,dc,ddl,ddr,vr,hd,vl,hu:  6% 29% 30%  3%  6%  4% 11%  3%  8%
[libx264 @ 0x563bf80ad260] i8c dc,h,v,p: 44% 51%  1%  5%
[libx264 @ 0x563bf80ad260] Weighted P-Frames: Y:0.0% UV:0.0%
[libx264 @ 0x563bf80ad260] ref P L0: 86.6%  8.5%  4.0%  0.9%
[libx264 @ 0x563bf80ad260] ref B L0: 93.8%  6.2%
[libx264 @ 0x563bf80ad260] ref B L1: 96.0%  4.0%
[libx264 @ 0x563bf80ad260] kb/s:229.36
